PathFileType	4	(X/Y/Z)	D:\TRACE\spot_10-12-23\spot_arm_body_motion_1_4-platform.trc
DataRate	CameraRate	NumFrames	NumMarkers	Units	OrigDataRate	OrigDataStartFrame	OrigNumFrames
100.00	100.00	      49	5	mm	100.00	4376	      7000
Frame#	Time	Left_Front			Right_Front			Left_Aft			Right_Aft			Post			
		X1	Y1	Z1	X2	Y2	Z2	X3	Y3	Z3	X4	Y4	Z4	X5	Y5	Z5	

4376	43.750	-759.80908	10.98738	-651.61707	807.56311	9.22374	-626.78851	-688.20807	10.69556	487.11829	721.78125	10.37507	587.29773	42.34809	743.73029	-961.09338	
4377	43.760	-760.92725	11.55458	-651.49146	806.73004	9.50034	-626.77460	-689.23700	10.49472	487.22021	720.71790	9.93872	587.33960	41.52135	744.23151	-960.43103	
4378	43.770	-761.56500	11.66209	-651.45026	805.79816	9.82359	-626.66693	-690.09625	10.20176	487.31927	719.66742	9.47292	587.33948	40.63157	744.77979	-959.71796	
4379	43.780	-762.31409	11.99107	-651.28638	805.04370	10.16463	-626.58423	-690.75604	9.89143	487.43008	719.04919	9.25075	587.45740	39.85712	745.34424	-959.26569	
4380	43.790	-763.18463	12.52095	-651.18445	804.22150	10.56991	-626.54688	-691.67059	9.61868	487.54803	718.25134	9.02292	587.63885	38.91335	745.90521	-958.65332	
4381	43.800	-763.99280	12.87291	-651.27002	803.30762	11.09984	-626.41095	-692.48792	9.40652	487.66510	717.36334	8.64390	587.68488	38.44338	746.38586	-958.01190	
4382	43.810	-764.96979	13.15988	-651.17938	802.60223	11.43442	-626.28033	-693.41547	9.21020	487.67868	716.41791	8.26330	587.65381	37.16284	747.10260	-958.54419	
4383	43.820	-765.81958	13.47125	-650.79926	801.63501	11.71053	-626.16943	-694.39893	8.91741	487.71259	715.52466	8.01147	587.78119	36.04628	747.64563	-958.17419	
4384	43.830	-766.64203	13.94045	-650.79742	800.63147	12.16605	-626.18268	-695.48401	8.43475	487.75055	714.71490	7.67368	587.92096	34.99094	748.21637	-957.97906	
4385	43.840	-767.53973	14.43084	-651.05762	799.76910	12.56304	-626.09119	-695.98987	8.36153	487.71982	713.76410	7.19281	587.96167	34.30416	748.77393	-957.87201	
4386	43.850	-768.55127	15.02857	-650.71527	799.00531	12.96496	-625.99182	-697.16058	8.20107	487.76056	712.98181	6.98117	587.95294	33.28223	749.44196	-957.26434	
4387	43.860	-769.28448	15.37776	-650.60449	798.03064	13.42569	-625.93213	-697.88770	7.99609	487.89316	712.11401	6.83210	588.27307	32.52946	749.89148	-956.78473	
4388	43.870	-770.43018	15.87022	-650.38153	797.15717	13.72538	-625.80994	-698.81470	7.64024	487.99808	711.08362	6.45729	588.33557	31.64604	750.47333	-956.24396	
4389	43.880	-771.38379	16.19379	-650.46875	796.19037	14.10512	-625.69550	-699.79083	7.38318	488.11737	710.04437	5.96929	588.39435	30.68040	751.22955	-955.56036	
4390	43.890	-772.15808	16.59542	-650.35468	795.31189	14.47858	-625.59668	-700.60461	7.11983	488.16391	709.25629	5.78421	588.54523	29.67904	751.82935	-954.79083	
4391	43.900	-773.07965	16.97030	-650.19983	794.34003	14.91054	-625.55554	-701.56372	6.75931	488.25385	708.24640	5.46211	588.52173	29.01031	752.32849	-954.25720	
4392	43.910	-773.84521	17.26259	-650.12585	793.38098	15.32730	-625.45282	-702.52527	6.51119	488.35431	707.44421	5.17415	588.63055	27.99099	753.05054	-953.39752	
4393	43.920	-775.05383	17.86296	-650.03839	792.41919	15.57933	-625.35815	-703.45331	6.17447	488.54340	706.39514	4.71187	588.81201	27.14713	753.61157	-952.77533	
4394	43.930	-775.91010	18.11971	-649.90717	791.33081	16.01260	-625.30493	-704.54688	5.97702	488.54114	705.53229	4.41960	588.84967	26.21342	754.20056	-951.91107	
4395	43.940	-776.76672	18.49277	-649.82074	790.40759	16.36932	-625.19897	-705.40363	5.70596	488.65219	704.52856	4.00893	588.83307	25.19281	754.77991	-951.34650	
4396	43.950	-777.80713	19.07096	-649.80341	789.43408	16.80625	-625.15710	-706.30933	5.50695	488.70700	703.50397	3.61948	588.94086	24.04775	755.37152	-950.73816	
4397	43.960	-778.84448	19.63277	-649.86707	788.58282	17.16516	-625.07202	-707.25873	5.19207	488.80798	702.58862	3.39449	589.03333	23.16818	755.82373	-950.41315	
4398	43.970	-779.69543	19.93446	-649.67297	787.65833	17.59835	-624.83862	-708.08014	5.00080	488.98093	701.79865	3.18569	589.04260	22.30287	756.37231	-950.03064	
4399	43.980	-780.58813	20.18756	-649.43396	786.68408	17.93103	-624.71954	-709.24609	4.75082	489.04010	700.72418	2.79830	589.16315	21.23526	757.14514	-949.66357	
4400	43.990	-781.60968	20.52605	-649.48224	785.70782	18.27742	-624.75238	-710.12891	4.39293	489.17099	699.75128	2.42275	589.13257	20.32167	757.66034	-949.43750	
4401	44.000	-782.58539	21.03361	-649.45538	784.66382	18.76727	-624.66895	-711.03882	4.08729	489.15646	698.74762	2.11938	589.26404	19.21693	758.27380	-948.95313	
4402	44.010	-783.46674	21.39880	-649.22723	783.78467	19.09115	-624.60828	-712.14136	3.79107	489.20154	697.90460	1.80446	589.39447	18.50772	758.82233	-948.62054	
4403	44.020	-784.43921	21.84385	-649.05579	782.80560	19.54460	-624.47650	-712.85156	3.54424	489.31934	696.96729	1.34957	589.53320	17.63666	759.47717	-948.39636	
4404	44.030	-785.43164	22.27964	-649.05206	781.80872	19.94913	-624.42493	-713.92212	3.21895	489.48605	695.83740	0.87035	589.48718	16.38291	760.54590	-947.52502	
4405	44.040	-786.43280	22.81900	-648.88855	780.82080	20.56742	-624.09009	-714.95105	2.97029	489.62152	695.16736	0.63347	589.75714	15.59224	761.13892	-946.84204	
4406	44.050	-787.14722	23.21450	-648.92676	779.93494	20.85460	-624.04291	-715.84283	2.53975	489.68976	693.97736	0.09539	589.90723	14.47451	761.65771	-946.04999	
4407	44.060	-787.89343	23.74900	-648.95599	778.96881	21.24663	-623.97131	-716.73865	2.16330	489.74454	692.97528	-0.25267	589.96216	13.96710	762.30664	-944.72302	
4408	44.070	-789.41742	24.54963	-648.69897	778.16803	22.00455	-623.86151	-717.61401	1.83419	489.82440	692.31549	-0.42537	590.07263	12.97553	763.06787	-943.98114	
4409	44.080	-790.33112	24.77135	-648.54883	777.19812	22.36618	-623.76880	-718.92834	1.35866	490.06769	691.13922	-0.85809	590.12476	11.48429	763.63373	-943.49658	
4410	44.090	-791.21826	25.07569	-648.28607	776.19647	22.81399	-623.73438	-719.93866	1.10112	490.14502	690.01343	-1.35795	590.27325	11.17230	764.18713	-942.31586	
4411	44.100	-792.12177	25.45233	-648.32013	775.18549	23.19633	-623.63556	-720.72925	0.87988	490.27362	689.18781	-1.45493	590.29626	9.62130	764.75098	-941.98871	
4412	44.110	-793.23083	25.89147	-648.27161	774.26642	23.50480	-623.54364	-721.93427	0.64514	490.28113	688.21729	-1.79694	590.39276	8.71649	765.24457	-941.54901	
4413	44.120	-794.18976	26.25474	-648.03455	773.34668	23.91780	-623.46057	-722.68256	0.39020	490.35568	687.30682	-2.15955	590.36768	7.60062	765.77100	-940.92242	
4414	44.130	-794.92773	26.47093	-647.95679	772.38068	24.32807	-623.37549	-723.71130	0.21221	490.36545	686.28589	-2.41993	590.43494	6.75944	766.21649	-940.61938	
4415	44.140	-796.06305	27.01690	-647.99042	771.43091	24.74815	-623.29224	-724.75629	-0.00891	490.46515	685.35724	-2.72164	590.54633	5.79190	766.97205	-940.37189	
4416	44.150	-797.02814	27.72064	-647.88867	770.31512	25.37207	-623.17804	-725.61536	-0.34233	490.60806	684.39948	-3.18266	590.67944	4.86180	767.49817	-940.03156	
4417	44.160	-797.83722	28.11937	-647.85205	769.37750	25.73736	-623.12219	-726.71735	-0.58435	490.64221	683.34937	-3.50201	590.63379	4.02637	767.93079	-939.95636	
4418	44.170	-798.91553	28.26804	-647.58063	768.48059	25.75116	-623.00653	-727.70349	-0.84101	490.71274	682.32800	-3.54861	590.73242	2.92106	768.64294	-939.74548	
4419	44.180	-800.08179	28.81829	-647.72186	767.42377	26.28536	-622.90149	-728.54706	-1.18035	490.82843	681.41815	-3.98282	590.85083	1.85952	769.32019	-939.51691	
4420	44.190	-800.95496	29.38382	-647.77911	766.55426	26.80857	-622.81085	-729.60559	-1.47508	490.83099	680.37622	-4.32412	590.93646	1.09449	769.76581	-939.11511	
4421	44.200	-801.88977	29.78147	-647.45209	765.64227	27.27172	-622.64435	-730.33490	-1.74696	491.03140	679.46710	-4.83350	590.91492	0.43915	770.50995	-937.87341	
4422	44.210	-802.79956	30.13099	-647.23578	764.76300	27.55740	-622.47778	-731.36346	-2.05430	491.26987	678.63293	-5.17684	591.13306	-0.52752	771.27930	-937.75024	
4423	44.220	-803.83911	30.61368	-647.29901	763.85913	28.05905	-622.44897	-732.29169	-2.29966	491.42654	677.83405	-5.31730	591.18445	-1.13347	771.87201	-936.42950	
4424	44.230	-804.60980	30.84083	-647.15405	762.84833	28.67112	-622.35632	-733.18536	-2.52563	491.45786	676.67108	-5.86687	591.09106	-2.36810	772.38867	-936.40308	
